<svg xmlns="http://www.w3.org/2000/svg" version="1.0" viewBox="0 0 700.000000 580.000000" preserveAspectRatio="xMidYMid meet">
<metadata>
Created by potrace 1.15, written by Peter Selinger 2001-2017
</metadata>
<g transform="translate(0.000000,500.000000) scale(0.100000,-0.100000)" fill="none" class="map" stroke="none">










<path id="map__fr" d="M2486 4330 c-48 -24 -65 -47 -66 -86 -1 -111 -66 -198 -205 -272 -84 -45 -90 -51 -93 -83 -5 -53 -16 -59 -101 -59 -102 0 -175 20 -202 54 -11 15 -38 36 -60 46 -45 23 -48 18 -24 -49 8 -24 22 -82 30 -129 9 -48 19 -95 21 -104 5 -15 -1 -18 -38 -18 -45 0 -147 -14 -185 -26 -17 -5 -33 5 -76 45 -58 55 -68 59 -88 35 -23 -28 -72 -47 -148 -55 -44 -5 -81 -15 -90 -24 -14 -14 -12 -18 23 -47 38 -31 38 -32 33 -90 l-5 -58 33 0 c18 0 71 -16 117 -36 45 -20 115 -44 153 -53 65 -16 70 -19 70 -45 1 -19 14 -39 43 -66 33 -31 42 -46 42 -73 0 -52 48 -115 132 -173 l73 -50 -3 -70 c-10 -238 -46 -491 -91 -634 -26 -83 -26 -87 4 -94 18 -5 25 -13 25 -31 0 -54 127 -95 293 -95 182 0 282 -22 346 -76 39 -32 100 -41 156 -22 42 14 58 36 75 105 13 52 59 99 140 142 85 46 130 43 310 -15 80 -26 157 -49 171 -51 34 -6 69 12 155 84 39 32 85 66 102 75 30 16 72 71 72 93 0 7 -14 9 -34 7 -26 -3 -41 3 -70 29 -49 42 -66 78 -66 136 -1 26 -7 59 -15 73 -22 38 -18 47 26 77 45 30 45 30 8 126 -18 48 -20 63 -11 78 17 27 15 49 -10 86 -29 42 -49 41 -118 -2 -30 -18 -56 -32 -58 -31 -1 2 7 19 18 39 14 23 19 44 15 60 -5 20 0 30 28 51 19 15 38 38 41 51 4 14 27 48 52 76 24 28 47 63 51 79 3 20 14 32 33 39 34 11 49 38 83 148 15 44 38 110 52 145 36 84 44 114 36 124 -3 5 -33 19 -66 30 -33 12 -114 44 -181 72 -66 27 -147 56 -180 63 -41 9 -83 30 -139 68 -89 60 -132 81 -169 81 -30 0 -39 12 -46 65 -5 37 -7 40 -47 47 -56 9 -98 42 -124 95 l-21 43 -49 -6 -50 -7 -16 42 c-14 36 -20 41 -47 41 -17 -1 -48 -9 -70 -20z"/>







<path id="map__ch" d="M3805 3319 c-114 -14 -187 -31 -235 -54 -57 -29 -143 -119 -159 -168 -8 -24 -23 -43 -42 -52 -51 -27 -32 -49 41 -50 39 0 47 -4 65 -33 63 -102 57 -97 112 -97 63 1 99 19 112 56 10 28 63 69 89 69 7 0 19 -15 27 -33 8 -19 21 -39 29 -46 23 -19 59 7 97 69 17 28 36 50 42 50 7 0 23 -9 37 -20 14 -11 30 -20 35 -20 15 0 81 56 105 90 l21 30 -45 -6 c-42 -6 -48 -4 -80 28 -33 33 -56 89 -56 136 0 13 -5 32 -10 43 -12 21 -57 23 -185 8z"/>
<path id="map__it" d="M4392 3131 c-18 -5 -49 -20 -70 -34 -28 -19 -46 -24 -73 -20 -34 5 -37 3 -44 -25 -3 -17 -17 -38 -31 -46 -13 -9 -24 -25 -24 -36 0 -26 -40 -45 -75 -36 -15 4 -38 18 -53 33 l-26 26 -27 -31 c-26 -29 -49 -87 -49 -124 0 -32 -25 -19 -92 47 -74 74 -98 82 -98 32 0 -49 -27 -67 -127 -89 -48 -10 -92 -23 -97 -28 -7 -7 -3 -25 12 -55 12 -25 22 -52 22 -59 0 -8 -18 -29 -40 -46 -22 -17 -40 -36 -40 -41 0 -5 13 -30 30 -57 l29 -47 -21 -17 -22 -16 26 -39 c25 -38 79 -73 111 -73 21 0 38 -25 31 -44 -13 -34 32 -14 125 57 52 39 101 76 108 80 19 12 191 -72 240 -117 42 -38 66 -94 82 -193 9 -61 27 -86 171 -242 114 -124 234 -232 290 -261 19 -10 62 -23 95 -30 93 -19 128 -37 178 -90 26 -27 59 -52 74 -56 52 -11 68 -25 98 -82 24 -46 39 -61 80 -82 36 -18 56 -37 74 -69 29 -52 69 -168 82 -235 8 -45 7 -53 -17 -87 -29 -43 -53 -103 -54 -137 0 -27 37 -46 58 -29 27 22 74 100 90 149 14 44 24 56 62 78 39 23 45 31 48 64 3 35 -1 43 -58 96 l-61 59 16 36 c8 20 38 66 66 101 60 75 77 79 155 35 48 -28 106 -84 117 -113 3 -10 10 -8 27 8 21 20 21 23 6 52 -23 45 -119 119 -270 208 -157 93 -213 131 -221 152 -3 8 4 25 17 39 35 37 13 48 -100 48 -94 0 -100 1 -156 35 -76 45 -137 123 -176 225 -68 176 -98 215 -203 266 -45 22 -47 22 -61 4 -25 -34 -43 -12 -50 62 -18 180 -18 200 -7 207 14 9 14 58 -1 107 -18 62 -4 80 102 124 51 21 99 45 106 53 18 18 18 112 0 156 -12 29 -22 36 -82 55 -65 19 -83 29 -146 74 -30 21 -109 30 -156 18z"/>














<path id="map__it" d="M4720 745 c-8 -9 -26 -15 -46 -13 -19 1 -40 -4 -46 -11 -30 -30 154 -154 277 -186 66 -17 98 -35 120 -69 9 -13 30 -30 46 -36 26 -11 34 -10 57 7 34 25 38 51 18 111 -17 52 -12 82 28 157 33 62 37 61 -149 40 -113 -12 -138 -12 -190 0 -77 18 -100 18 -115 0z"/>

</g>
</svg>
